<svg xmlns="http://www.w3.org/2000/svg" width="71pt" height="96" viewBox="0 0 71 72"><path d="M60.258 16.363H48.625a19.151 19.151 0 005.684-13.652C54.309 1.215 53.113 0 51.637 0 44.793 0 38.793 3.727 35.5 9.281 32.207 3.727 26.207 0 19.363 0c-1.476 0-2.672 1.215-2.672 2.71a19.15 19.15 0 005.684 13.653H10.742c-1.476 0-2.676 1.215-2.676 2.711V69.29c0 1.496 1.2 2.711 2.676 2.711h49.516c1.476 0 2.676-1.215 2.676-2.71V19.073c0-1.496-1.2-2.71-2.676-2.71zM57.582 41.47H38.176V21.79h19.406zm-8.96-35.7c-1.15 5.079-5.102 9.083-10.106 10.25 1.148-5.078 5.097-9.085 10.105-10.25zM32.483 16.02c-5.004-1.167-8.957-5.171-10.105-10.25 5.008 1.165 8.957 5.172 10.105 10.25zm.34 5.77v19.68H13.418V21.79zM13.418 46.895h19.406v19.683H13.418zm24.758 19.683V46.895h19.406v19.683zm0 0" id="surface1"/></svg>