<?xml version="1.0" encoding="UTF-8"?>
<svg xmlns="http://www.w3.org/2000/svg" xmlns:xlink="http://www.w3.org/1999/xlink" width="71pt" height="72pt" viewBox="0 0 71 72" version="1.1">
<g id="surface1">
<path style=" stroke:none;fill-rule:nonzero;fill:rgb(0%,0%,0%);fill-opacity:1;" d="M 60.257812 16.363281 L 48.625 16.363281 C 52.128906 12.898438 54.308594 8.058594 54.308594 2.710938 C 54.308594 1.214844 53.113281 0 51.636719 0 C 44.792969 0 38.792969 3.726562 35.5 9.28125 C 32.207031 3.726562 26.207031 0 19.363281 0 C 17.886719 0 16.691406 1.214844 16.691406 2.710938 C 16.691406 8.058594 18.871094 12.898438 22.375 16.363281 L 10.742188 16.363281 C 9.265625 16.363281 8.066406 17.578125 8.066406 19.074219 L 8.066406 69.289062 C 8.066406 70.785156 9.265625 72 10.742188 72 L 60.257812 72 C 61.734375 72 62.933594 70.785156 62.933594 69.289062 L 62.933594 19.074219 C 62.933594 17.578125 61.734375 16.363281 60.257812 16.363281 Z M 57.582031 41.46875 L 38.175781 41.46875 L 38.175781 21.789062 L 57.582031 21.789062 Z M 48.621094 5.769531 C 47.472656 10.847656 43.519531 14.851562 38.515625 16.019531 C 39.664062 10.941406 43.613281 6.933594 48.621094 5.769531 Z M 32.484375 16.019531 C 27.480469 14.851562 23.527344 10.847656 22.378906 5.769531 C 27.386719 6.933594 31.335938 10.941406 32.484375 16.019531 Z M 32.824219 21.789062 L 32.824219 41.46875 L 13.417969 41.46875 L 13.417969 21.789062 Z M 13.417969 46.894531 L 32.824219 46.894531 L 32.824219 66.578125 L 13.417969 66.578125 Z M 38.175781 66.578125 L 38.175781 46.894531 L 57.582031 46.894531 L 57.582031 66.578125 Z M 38.175781 66.578125 "/>
</g>
</svg>
