<?xml version="1.0" encoding="UTF-8"?>
<svg xmlns="http://www.w3.org/2000/svg" xmlns:xlink="http://www.w3.org/1999/xlink" width="81pt" height="75pt" viewBox="0 0 81 75" version="1.1">
<g id="surface1">
<path style=" stroke:none;fill-rule:nonzero;fill:rgb(0%,0%,0%);fill-opacity:1;" d="M 58.183594 2.792969 C 51.8125 2.792969 45.515625 5.113281 40.875 9.09375 C 36.234375 5.113281 29.9375 2.792969 23.5625 2.792969 C 10.34375 2.792969 0 12.160156 0 24.125 C 0 30.824219 3.042969 37.292969 9.582031 44.511719 C 15.289062 50.796875 23.226562 57.296875 33.832031 65.78125 L 39.171875 70.585938 C 39.640625 71.015625 40.25 71.226562 40.875 71.226562 C 41.496094 71.226562 42.121094 71.015625 42.59375 70.585938 L 47.933594 65.78125 C 58.519531 57.296875 66.460938 50.796875 72.164062 44.511719 C 78.707031 37.292969 81.75 30.824219 81.75 24.125 C 81.75 12.160156 71.40625 2.792969 58.183594 2.792969 Z M 44.660156 62.53125 C 44.617188 62.5625 44.585938 62.589844 44.554688 62.621094 L 40.875 65.933594 L 37.207031 62.621094 C 37.175781 62.589844 37.132812 62.5625 37.101562 62.53125 C 16.503906 46.035156 4.867188 36.117188 4.867188 24.125 C 4.867188 14.617188 13.082031 7.1875 23.5625 7.1875 C 29.328125 7.1875 35.261719 9.6875 39.019531 13.71875 C 39.488281 14.207031 40.160156 14.496094 40.875 14.496094 C 41.589844 14.496094 42.273438 14.207031 42.730469 13.71875 C 46.503906 9.6875 52.421875 7.1875 58.183594 7.1875 C 68.679688 7.1875 76.894531 14.617188 76.894531 24.125 C 76.894531 36.117188 65.242188 46.035156 44.660156 62.53125 Z M 44.660156 62.53125 "/>
<path style=" stroke:none;fill-rule:nonzero;fill:rgb(0%,0%,0%);fill-opacity:1;" d="M 25.007812 10.558594 C 15.773438 10.558594 8.550781 17.105469 8.550781 25.46875 C 8.550781 26.6875 9.628906 27.679688 10.96875 27.679688 C 12.304688 27.679688 13.402344 26.6875 13.402344 25.46875 C 13.402344 19.578125 18.496094 14.953125 25.007812 14.953125 C 26.347656 14.953125 27.441406 13.976562 27.441406 12.757812 C 27.441406 11.535156 26.347656 10.558594 25.007812 10.558594 Z M 25.007812 10.558594 "/>
</g>
</svg>
